[Header]
FileType HTR
DataType HTRS
FileVersion 1
NumSegments 22
NumFrames 4
DataFrameRate 24
EulerRotationOrder ZYX
CalibrationUnits mm
RotationUnits Degrees
GlobalAxisofGravity Y
BoneLengthAxis Y
ScaleFactor 1.0
[SegmentNames&Hierarchy]
reference	GLOBAL
Hips	reference
Spine	Hips
Spine1	Spine
Neck	Spine1
Head	Neck
LeftShoulder	Spine1
LeftArm	LeftShoulder
LeftForeArm	LeftArm
LeftHand	LeftForeArm
RightShoulder	Spine1
RightArm	RightShoulder
RightForeArm	RightArm
RightHand	RightForeArm
LeftUpLeg	Hips
LeftLeg	LeftUpLeg
LeftFoot	LeftLeg
LeftToeBase	LeftFoot
RightUpLeg	Hips
RightLeg	RightUpLeg
RightFoot	RightLeg
RightToeBase	RightFoot
[BasePosition]
reference	0	0	0	0	0	0	1
Hips	0	0	0	0	0	0	1
Spine	0	0	0	0	-0	90	1
Spine1	0	0	0	0	0	0	1
Neck	0	0	0	-7.352327771	-7.352327771	90	1
Head	0	0	0	0	-0	90	1
LeftShoulder	0	0	0	0	0	0	1
LeftArm	0	0	0	0	0	0	1
LeftForeArm	0	0	0	0	0	0	1
LeftHand	0	0	0	0	0	0	1
RightShoulder	0	0	0	0	-0	180	1
RightArm	0	0	0	0	-0	180	1
RightForeArm	0	0	0	0	-0	180	1
RightHand	0	0	0	0	-0	180	1
LeftUpLeg	0	0	0	0	-0	-90	1
LeftLeg	0	0	0	0	-0	-90	1
LeftFoot	0	0	0	66.57146043	-66.57146043	-90	1
LeftToeBase	0	0	0	0	-90	0	1
RightUpLeg	0	0	0	0	-0	-90	1
RightLeg	0	0	0	0	-0	-90	1
RightFoot	0	0	0	66.57146043	-66.57146043	-90	1
RightToeBase	0	0	0	0	-90	0	1
[reference]
19	0	0	0	0	-0	0	1.0
20	0	0	0	0	-0	0	1.0
21	0	0	0	0	-0	0	1.0
22	0	0	0	0	-0	0	1.0
[Hips]
19	4.476177692	8.3105793	1.102697968	5.29989624	-129.5606537	-2.796295166	1.0
20	4.500191689	8.213745117	1.099444389	4.975828648	-129.3632813	-2.656176329	1.0
21	4.519857883	8.156066895	1.096208096	3.677293062	-129.4759216	-1.673239231	1.0
22	4.474578857	8.139048576	1.092990756	2.825356483	-129.9409485	-0.9693193436	1.0
[Spine]
19	0	0.7457100153	0	-8.351984024	0.4190289378	-90.13863373	1.0
20	0	0.7457100153	0	-7.314594269	0.1272354275	-90.02194214	1.0
21	0	0.7457100153	0	-6.726360798	-0.07301622629	-89.53635406	1.0
22	0	0.7457100153	0	-6.666143894	-0.3048878014	-89.37921143	1.0
[Spine1]
19	0	2.140589952	0	6.414439678	0.1080026254	0.5738289952	1.0
20	0	2.140589952	0	6.197241783	-0.008540340699	0.9982616901	1.0
21	0	2.140589952	0	6.882715225	-0.1240847036	1.481653571	1.0
22	0	2.140589952	0	7.517567635	-0.2566158473	2.208690166	1.0
[Neck]
19	0	2.32246995	0	-12.82052231	16.16057968	-91.71964264	1.0
20	0	2.32246995	0	-13.23684502	16.29233932	-92.17857361	1.0
21	0	2.32246995	0	-14.36063194	16.44435501	-92.92106628	1.0
22	0	2.32246995	0	-15.2707386	16.76898575	-93.34617615	1.0
[Head]
19	0	1.409579992	0.1818799973	-3.317841053	9.569056511	-93.29914856	1.0
20	0	1.409579992	0.1818799973	-3.659318209	9.731416702	-93.40000153	1.0
21	0	1.409579992	0.1818799973	-3.947502613	9.967499733	-93.56575012	1.0
22	0	1.409579992	0.1818799973	-3.617133617	10.39538765	-93.6880722	1.0
[LeftShoulder]
19	0.3668199778	1.946700096	-0.02662999928	-16.61136246	-12.46927834	0.0420290269	1.0
20	0.3668199778	1.946700096	-0.02662999928	-17.18776703	-12.51728344	0.06174102053	1.0
21	0.3668199778	1.946700096	-0.02662999928	-17.55614853	-12.42880821	0.2039443105	1.0
22	0.3668199778	1.946700096	-0.02662999928	-17.66442871	-12.48628521	0.5723356009	1.0
[LeftArm]
19	1.140689969	0	0	37.80219269	-0.3739487529	-61.38941193	1.0
20	1.140689969	0	0	37.83671188	-0.2853280902	-61.7885437	1.0
21	1.140689969	0	0	37.57269669	-1.1029495	-62.09661102	1.0
22	1.140689969	0	0	37.30529022	-2.255004168	-61.98825836	1.0
[LeftForeArm]
19	2.749800205	0	0	57.89612579	-135.122879	-24.7686615	1.0
20	2.749800205	0	0	58.28113556	-135.2794037	-24.88150406	1.0
21	2.749800205	0	0	59.60169601	-135.2859802	-24.95537376	1.0
22	2.749800205	0	0	59.59881592	-135.9517822	-24.4507103	1.0
[LeftHand]
19	2.295179844	0	0	-1.312995911	-20.05834007	17.98685837	1.0
20	2.295179844	0	0	-1.408020377	-20.1390419	18.30696487	1.0
21	2.295179844	0	0	-0.414708823	-20.4858284	18.93037224	1.0
22	2.295179844	0	0	-0.136592865	-20.12037277	18.90272141	1.0
[RightShoulder]
19	-0.3601199985	1.946700096	-0.02662999928	-7.521503925	3.163183451	174.4226685	1.0
20	-0.3601199985	1.946700096	-0.02662999928	-7.751561165	3.186203957	174.5809174	1.0
21	-0.3601199985	1.946700096	-0.02662999928	-7.306264877	2.712086201	173.736145	1.0
22	-0.3601199985	1.946700096	-0.02662999928	-7.900069714	3.056511402	174.0368042	1.0
[RightArm]
19	-1.140689969	0	0	56.27007294	5.787464142	-105.3640976	1.0
20	-1.140689969	0	0	55.88257599	5.930073261	-105.7879791	1.0
21	-1.140689969	0	0	55.61737061	7.246240616	-104.9413681	1.0
22	-1.140689969	0	0	55.4686203	6.979251385	-105.3847275	1.0
[RightForeArm]
19	-2.749800205	0	0	-103.6379395	43.79597473	32.62488556	1.0
20	-2.749800205	0	0	-103.7150726	43.70436859	32.47754669	1.0
21	-2.749800205	0	0	-103.8087158	44.11773682	32.63539124	1.0
22	-2.749800205	0	0	-104.4717865	44.1485939	32.08656311	1.0
[RightHand]
19	-2.295179844	0	0	0.5411171913	17.0316391	155.6274109	1.0
20	-2.295179844	0	0	0.587964654	17.02038765	155.5440979	1.0
21	-2.295179844	0	0	0.7685933113	17.14363289	155.6313782	1.0
22	-2.295179844	0	0	1.177262902	16.93837166	155.7171936	1.0
[LeftUpLeg]
19	0.9094099998	0	0	-17.63851547	0.1419356912	97.7878418	1.0
20	0.9094099998	0	0	-22.82338142	0.4914355874	99.48136902	1.0
21	0.9094099998	0	0	-26.96251869	1.363837123	101.3026123	1.0
22	0.9094099998	0	0	-29.3428936	3.124254704	102.0758972	1.0
[LeftLeg]
19	0	-4.498080254	0	27.0073204	0.9492987394	81.66179657	1.0
20	0	-4.498080254	0	38.10931778	-1.764307976	75.43087006	1.0
21	0	-4.498080254	0	47.16871643	-3.256446838	68.59905243	1.0
22	0	-4.498080254	0	53.21178055	-4.428427696	63.78410721	1.0
[LeftFoot]
19	0	-3.729400158	0	-63.69894409	110.4729004	-9.239946365	1.0
20	0	-3.729400158	0	-53.71883011	113.3184738	2.650026083	1.0
21	0	-3.729400158	0	-45.01699829	116.7327194	11.88293457	1.0
22	0	-3.729400158	0	-38.34391785	118.5842896	18.02772903	1.0
[LeftToeBase]
19	0	-0.5911099911	1.364109993	0	0	0	1.0
20	0	-0.5911099911	1.364109993	0	0	0	1.0
21	0	-0.5911099911	1.364109993	0	0	0	1.0
22	0	-0.5911099911	1.364109993	0	0	0	1.0
[RightUpLeg]
19	-0.9094099998	0	0	-4.675349236	-10.92662334	91.14694214	1.0
20	-0.9094099998	0	0	-6.965900421	-12.13859749	91.8032608	1.0
21	-0.9094099998	0	0	-8.254303932	-12.78472996	92.40166473	1.0
22	-0.9094099998	0	0	-7.961789131	-13.09964752	92.33273315	1.0
[RightLeg]
19	0	-4.498080254	0	29.77210236	-1.977625608	82.08588409	1.0
20	0	-4.498080254	0	35.05001831	-0.214733243	81.48606873	1.0
21	0	-4.498080254	0	38.76682663	1.174546599	81.58417511	1.0
22	0	-4.498080254	0	39.44323349	1.490560055	81.99731445	1.0
[RightFoot]
19	0	-3.729400158	0	33.6469574	56.35591507	94.19880676	1.0
20	0	-3.729400158	0	31.75926781	55.7601738	94.76140594	1.0
21	0	-3.729400158	0	29.68932915	55.51628876	94.62148285	1.0
22	0	-3.729400158	0	29.80567551	55.35826874	95.38479614	1.0
[RightToeBase]
19	0	-0.5911099911	1.364109993	0	0	0	1.0
20	0	-0.5911099911	1.364109993	0	0	0	1.0
21	0	-0.5911099911	1.364109993	0	0	0	1.0
22	0	-0.5911099911	1.364109993	0	0	0	1.0
[EndOfFile]
